# xmcd
#
# Track frame offsets:
#	150
#	16811
#	33741
#	49977
#	66517
#	81014
#	96892
#	113874
#	130883
#	145753
#	164572
#	180690
#	194089
#	212552
#	230105
#	247965
#	264827
#	279531
#	295983
#	311385
#
# Disc length: 4335 seconds
#
# Revision: 3
# Processed by: cddbd v1.5.2PL0 Copyright (c) Steve Scherf et al.
# Submitted via: EasyCDDAExtractor 6.2.0.3
#
DISCID=2e10ed14
DTITLE=Various Artist - De Zomer top 100 [CD 2)
DYEAR=2003
DGENRE=pop
TTITLE0=Los del Rio - Macarena
TTITLE1=Inner Circle - Sweat
TTITLE2=In-Grid - Tu es Foutu
TTITLE3=Diana King - Shy Guy
TTITLE4=Elvis Crespo - Suavemente
TTITLE5=Lauren - O-Ayo
TTITLE6=Marc Anthony - I need to know
TTITLE7=Ann Lee - 2 Times
TTITLE8=Afroman - because I got High
TTITLE9=Soca Boys - Follow the Leader
TTITLE10=Moloko - Sing it back
TTITLE11=Myriam Makeba - Pata Pata
TTITLE12=Jimmy Cliff - Reggae Night
TTITLE13=Dario G - Sunchyme
TTITLE14=Mary Kante - Yeke Yeke
TTITLE15=Gibson Brothers - Cuba
TTITLE16=Dawn Penin - you don't love me
TTITLE17=French Affair - my heart goes boom
TTITLE18=Sailor - La cumbia
TTITLE19=Roots Syndicate - Mockin' bird hill
EXTD=
EXTT0=
EXTT1=
EXTT2=
EXTT3=
EXTT4=
EXTT5=
EXTT6=
EXTT7=
EXTT8=
EXTT9=
EXTT10=
EXTT11=
EXTT12=
EXTT13=
EXTT14=
EXTT15=
EXTT16=
EXTT17=
EXTT18=
EXTT19=
PLAYORDER=
